# xmcd
#
# Track frame offsets:
#	150
#	12310
#	26075
#	39692
#	51725
#	64872
#	78445
#	93570
#	108290
#	120100
#	133352
#	146785
#	159595
#	173440
#	187175
#	200485
#	214552
#	229675
#	242255
#	255047
#	267760
#	280905
#	294642
#
# Disc length: 4136 seconds
#
# Revision: 1
# Processed by: cddbd v1.5.1PL0 Copyright (c) Steve Scherf et al.
# Submitted via: audiograbber 1.82.02
#
DISCID=4a102617
DTITLE=Buddy Williams - Buddy Williams Regal Zonophone Collection
DYEAR=1900
DGENRE=
TTITLE0=That Dappled Grey Bronco Of Mine
TTITLE1=(They Called Me) The Rambling Yodeller
TTITLE2=Lonesome For You Mother Dear
TTITLE3=My Moonlight Lullaby
TTITLE4=Happy Jackeroo
TTITLE5=A Cowboy's Life Is Good Enough For Me
TTITLE6=Under The Old Wattle Tree
TTITLE7=The Australian Bushman's Yodel
TTITLE8=The Shearer's Goodbye
TTITLE9=Memories Of Home
TTITLE10=Going Home
TTITLE11=The Wandering Gambler
TTITLE12=Happy Cowboys
TTITLE13=Heading For The Warwick Rodeo
TTITLE14=The Crepe On The Cabin Floor
TTITLE15=When The Candle Lights Are Gleaming
TTITLE16=Let's Grow Old Together
TTITLE17=The Dying Soldier's Prayer
TTITLE18=I'll Be Back Never Fear
TTITLE19=Wingie The Railway Cop
TTITLE20=Freight Train Blues
TTITLE21=The Australian Hillbilly
TTITLE22=Where The White Faced Cattle Roam
EXTD=
EXTT0=
EXTT1=
EXTT2=
EXTT3=
EXTT4=
EXTT5=
EXTT6=
EXTT7=
EXTT8=
EXTT9=
EXTT10=
EXTT11=
EXTT12=
EXTT13=
EXTT14=
EXTT15=
EXTT16=
EXTT17=
EXTT18=
EXTT19=
EXTT20=
EXTT21=
EXTT22=
PLAYORDER=
